<svg width="137" height="32" viewBox="0 0 137 32" fill="none" xmlns="http://www.w3.org/2000/svg">
<g clip-path="url(#clip0_1_2777)">
<path d="M5.54234 1.77783L2.66839 17.7585L0.431641 30.1574H6.4223L8.62003 18.0285L11.5373 1.77783H5.54234Z" fill="white"/>
<path d="M27.3553 10.7173L26.9955 12.7803C25.7688 11.0422 23.9048 10.1731 21.4037 10.1731C18.4473 10.1731 15.9635 11.1392 13.9522 13.0714C11.9409 15.0036 10.6838 17.3028 10.1766 19.9733C9.61742 22.7956 10.0292 25.2931 11.4163 27.4573C12.7991 29.6216 15.0229 30.7016 18.0876 30.7016C20.5627 30.7016 22.5611 30.0814 24.0782 28.8369L23.8398 30.1574H29.8305L33.346 10.7173H27.3553ZM25.5954 20.4373V20.4795C25.331 21.9055 24.6764 23.0445 23.6404 23.8967C22.6001 24.7531 21.3863 25.1834 20.0035 25.1834C18.6207 25.1834 17.5674 24.7531 16.8478 23.8967C16.1282 23.0445 15.9028 21.8886 16.1673 20.4373C16.436 18.9861 17.0819 17.8344 18.1049 16.978C19.1322 16.1215 20.3373 15.6954 21.7201 15.6954C23.1029 15.6954 24.1649 16.1215 24.8975 16.978C25.6301 17.8344 25.8642 18.9861 25.5954 20.4373Z" fill="white"/>
<path d="M37.9016 1.77783L35.0234 17.7585L32.7866 30.1574H38.7773L40.975 18.0285L43.8923 1.77783H37.9016Z" fill="white"/>
<path d="M59.7095 10.7173L59.3497 12.7803C58.1273 11.0422 56.2591 10.1731 53.7579 10.1731C50.8016 10.1731 48.3177 11.1392 46.3064 13.0714C44.2951 15.0036 43.038 17.3028 42.5308 19.9733C41.9716 22.7956 42.3878 25.2931 43.7706 27.4573C45.1534 29.6216 47.3771 30.7016 50.4418 30.7016C52.9213 30.7016 54.9153 30.0814 56.4368 28.8369L56.194 30.1574H62.1847L65.7045 10.7173H59.7095ZM57.9539 20.4373V20.4795C57.6852 21.9055 57.035 23.0445 55.9946 23.8967C54.9543 24.7531 53.7449 25.1834 52.3621 25.1834C50.9793 25.1834 49.9216 24.7531 49.202 23.8967C48.4868 23.0445 48.2571 21.8886 48.5258 20.4373C48.7902 18.9861 49.4361 17.8344 50.4635 16.978C51.4865 16.1215 52.6915 15.6954 54.0787 15.6954C55.4658 15.6954 56.5191 16.1215 57.2517 16.978C57.9843 17.8344 58.2184 18.9861 57.9539 20.4373Z" fill="white"/>
<path d="M73.1261 18.3028C72.6146 17.6784 71.9297 17.3662 71.0628 17.3662C70.1958 17.3662 69.3505 17.6531 68.6526 18.2226C67.9547 18.7964 67.5299 19.5135 67.3739 20.3742C67.2178 21.2137 67.3912 21.9478 67.8897 22.5722C68.3882 23.2008 69.0688 23.5129 69.9314 23.5129C70.885 23.5129 71.7043 23.2261 72.3935 22.6523C73.0784 22.0828 73.4989 21.3656 73.6549 20.505C73.811 19.6612 73.6333 18.9272 73.1261 18.3028Z" fill="#0AFE87"/>
<path d="M96.4207 13.2654C94.7691 11.232 92.5454 10.2153 89.7494 10.2153C86.4723 10.2153 83.7848 11.405 81.6781 13.7886L83.6374 2.94214H80.1609L75.2496 30.1573H78.7261L79.3633 26.5419C80.0005 27.8117 80.9152 28.8158 82.0986 29.5541C83.2863 30.2966 84.6908 30.6636 86.3163 30.6636C89.3246 30.6636 91.9212 29.6975 94.1059 27.7653C96.2863 25.8373 97.6344 23.4453 98.1372 20.5934C98.6444 17.7415 98.0722 15.2989 96.4207 13.2654ZM94.6651 20.2812C94.2923 22.3062 93.3256 23.9937 91.7694 25.3564C90.2089 26.719 88.4057 27.3983 86.3553 27.3983C84.305 27.3983 82.7921 26.7317 81.6608 25.3944C80.5294 24.0612 80.1349 22.4075 80.4817 20.4373C80.8545 18.4419 81.8428 16.7839 83.438 15.4634C85.0375 14.1387 86.8321 13.4806 88.8305 13.4806C90.8288 13.4806 92.4197 14.1218 93.525 15.4043C94.6304 16.6868 95.0075 18.3111 94.6651 20.2812Z" fill="#0AFE87"/>
<path d="M118.571 13.2275C116.959 11.2194 114.648 10.2153 111.64 10.2153C108.632 10.2153 106.126 11.1477 103.89 13.0124C101.653 14.8771 100.283 17.2227 99.7759 20.0493C99.2427 23.0319 99.8192 25.5463 101.497 27.5924C103.174 29.6385 105.584 30.6637 108.727 30.6637C110.617 30.6637 112.394 30.2966 114.059 29.5541C115.724 28.8158 117.059 27.7738 118.073 26.428L115.476 24.5971C113.933 26.5166 111.814 27.4743 109.126 27.4743C107.288 27.4743 105.814 26.9976 104.713 26.0357C103.603 25.078 103.053 23.7322 103.053 21.9941H119.751C119.963 21.3993 120.097 20.893 120.149 20.4796C120.708 17.653 120.184 15.2356 118.571 13.2275ZM116.877 18.9988H103.573C104.158 17.2649 105.151 15.898 106.547 14.8982C107.947 13.9025 109.577 13.4005 111.441 13.4005C113.118 13.4005 114.466 13.873 115.476 14.8222C116.486 15.7672 116.955 17.1594 116.877 18.9988Z" fill="#0AFE87"/>
<path d="M132.018 13.9869L132.616 10.7173H127.263L128.264 5.27515L124.588 6.28765L123.205 13.9869H132.018ZM122.672 29.398C124.003 30.2966 126.144 30.5455 129.105 30.1574L129.664 27.1241C128.489 27.1789 127.51 27.1958 126.725 27.1832C125.941 27.1705 125.373 26.9596 125.026 26.5419C124.683 26.1285 124.601 25.4535 124.788 24.5211L126.417 15.5689L123.205 13.9869L121.315 24.5211C120.886 26.8794 121.337 28.5078 122.672 29.398Z" fill="#0AFE87"/>
<path d="M137.038 7.48169H133.18L132.573 10.7555H136.431L137.038 7.48169Z" fill="#0AFE87"/>
</g>
<defs>
<clipPath id="clip0_1_2777">
<rect width="137" height="32" fill="white"/>
</clipPath>
</defs>
</svg>
